<svg width="229" height="82" viewBox="0 0 229 82" fill="none" xmlns="http://www.w3.org/2000/svg">
<path d="M227.582 49.1062C227.195 54.3945 223.758 59.2794 217.711 63.5762C211.668 67.8707 203.081 71.5305 192.547 74.3709C171.486 80.0504 142.757 82.4246 111.36 80.1291C79.9633 77.8337 51.8854 71.3064 31.874 62.624C21.866 58.2818 13.9019 53.4119 8.54779 48.2842C3.19065 43.1537 0.500271 37.8207 0.886901 32.5324C1.27353 27.2441 4.71094 22.3592 10.7573 18.0624C16.8003 13.7679 25.388 10.1081 35.9211 7.26774C56.9826 1.5882 85.7113 -0.785948 117.108 1.5095C148.505 3.80494 176.583 10.3322 196.595 19.0146C206.603 23.3568 214.567 28.2267 219.921 33.3544C225.278 38.485 227.968 43.8179 227.582 49.1062Z" stroke="#F4F2B9"/>
</svg>
