<svg width="123" height="119" viewBox="0 0 123 119" fill="none" xmlns="http://www.w3.org/2000/svg">
<circle cx="28" cy="42" r="4" fill="#E2B9F4"/>
<circle cx="76" cy="42" r="4" fill="#E2B9F4"/>
<path d="M27.5 48L36.5933 56.25H18.4067L27.5 48Z" fill="#E2B9F4" fill-opacity="0.42"/>
<path d="M75.5 48L84.5933 56.25H66.4067L75.5 48Z" fill="#E2B9F4" fill-opacity="0.42"/>
<path d="M49.5 48L58.5933 56.25H40.4067L49.5 48Z" fill="#B9EDF4" fill-opacity="0.42"/>
<path d="M97.5 48L106.593 56.25H88.4067L97.5 48Z" fill="#B9EDF4" fill-opacity="0.42"/>
<path d="M27.5 74L36.5933 82.25H18.4067L27.5 74Z" fill="#F4F2B9" fill-opacity="0.42"/>
<path d="M75.5 74L84.5933 82.25H66.4067L75.5 74Z" fill="#F4F2B9" fill-opacity="0.42"/>
<path d="M49.5 74L58.5933 82.25H40.4067L49.5 74Z" fill="#B2FFB9" fill-opacity="0.42"/>
<path d="M97.5 74L106.593 82.25H88.4067L97.5 74Z" fill="#B2FFB9" fill-opacity="0.42"/>
<rect x="45" y="38" width="8" height="7" fill="#7AE5F4"/>
<rect x="93" y="38" width="8" height="7" fill="#7AE5F4"/>
<path d="M28 62L29.1226 65.8004H32.7553L29.8164 68.1492L30.9389 71.9496L28 69.6008L25.0611 71.9496L26.1836 68.1492L23.2447 65.8004H26.8774L28 62Z" fill="#F4F2B9"/>
<path d="M76 62L77.1226 65.8004H80.7553L77.8164 68.1492L78.9389 71.9496L76 69.6008L73.0611 71.9496L74.1836 68.1492L71.2447 65.8004H74.8774L76 62Z" fill="#F4F2B9"/>
<ellipse cx="61.5" cy="59.5" rx="61.5" ry="59.5" fill="url(#paint0_linear_39_71)" fill-opacity="0.24"/>
<ellipse cx="61" cy="29" rx="28" ry="11" fill="url(#paint1_linear_39_71)" fill-opacity="0.24"/>
<defs>
<linearGradient id="paint0_linear_39_71" x1="61.5" y1="0" x2="61.5" y2="119" gradientUnits="userSpaceOnUse">
<stop stop-color="#E2B9F4"/>
<stop offset="1" stop-color="#D9D9D9" stop-opacity="0"/>
</linearGradient>
<linearGradient id="paint1_linear_39_71" x1="61" y1="18" x2="61" y2="40" gradientUnits="userSpaceOnUse">
<stop stop-color="#E2B9F4"/>
<stop offset="1" stop-color="#D9D9D9" stop-opacity="0"/>
</linearGradient>
</defs>
</svg>
