<svg width="355" height="249" viewBox="0 0 355 249" fill="none" xmlns="http://www.w3.org/2000/svg">
<g filter="url(#filter0_d_34_985)">
<rect x="19.5" y="11.5" width="316" height="210" rx="33.5" stroke="#DECA97" shape-rendering="crispEdges"/>
</g>
<rect x="56.5" y="48.5" width="68" height="132" rx="18.5" stroke="white" stroke-width="3"/>
<rect x="145.5" y="48.5" width="68" height="132" rx="18.5" stroke="white" stroke-width="3"/>
<rect x="236.5" y="48.5" width="67" height="132" rx="18.5" stroke="white" stroke-width="3"/>
<ellipse cx="254" cy="132.5" rx="14" ry="14.5" fill="#ED8779"/>
<circle cx="254" cy="100" r="14" fill="#BFFFAE"/>
<circle cx="285.5" cy="132.5" r="14.5" fill="#FFE588"/>
<ellipse cx="285.5" cy="100" rx="14.5" ry="14" fill="#AEB6FF"/>
<rect x="155" y="89" width="50" height="25" rx="8" fill="#BFFFAE"/>
<rect x="155" y="122" width="50" height="25" rx="8" fill="#4CA5A0"/>
<rect x="64" y="149" width="25" height="21" rx="8" fill="#4CA5A0"/>
<rect x="93" y="159" width="25" height="21" rx="8" fill="#4CA5A0"/>
<defs>
<filter id="filter0_d_34_985" x="0.1" y="0.1" width="354.8" height="248.8" filterUnits="userSpaceOnUse" color-interpolation-filters="sRGB">
<feFlood flood-opacity="0" result="BackgroundImageFix"/>
<feColorMatrix in="SourceAlpha" type="matrix" values="0 0 0 0 0 0 0 0 0 0 0 0 0 0 0 0 0 0 127 0" result="hardAlpha"/>
<feOffset dy="8"/>
<feGaussianBlur stdDeviation="9.45"/>
<feComposite in2="hardAlpha" operator="out"/>
<feColorMatrix type="matrix" values="0 0 0 0 0.765476 0 0 0 0 0.258692 0 0 0 0 0.892171 0 0 0 0.24 0"/>
<feBlend mode="normal" in2="BackgroundImageFix" result="effect1_dropShadow_34_985"/>
<feBlend mode="normal" in="SourceGraphic" in2="effect1_dropShadow_34_985" result="shape"/>
</filter>
</defs>
</svg>
